:SAMPLES-PER-SECOND 30
:FULLY-SPECIFIED
:DEGREES
112
root  34.73925553 36.58298883 -13.89648107 10.27527523 -4.996659756 3.654779196
lowerback  -7.823730469 -0.1977059841 -1.206709743
upperback  -3.952856541 0.3647480011 -4.396249771
thorax  0.3320659995 0.3718500137 -3.837670088
lowerneck  -8.18572998 -13.43949986 -9.06704998
upperneck  14.77670002 -18.78019714 12.33160019
head  7.9551301 -8.346079826 3.466929913
lclavicle  0 -4.497500157e-015 -2.743230041e-014
lhumerus  -47.65907669 30.97756386 61.94384003
lradius  0.001172923949 -6.507048965e-006 29.45964622
lwrist  3.192251654e-007 -3.790274832e-007 -29.43219948
lhand  -4.402459248e-031 -36.67079926 -10.71790028
lfingers  90 7.125020027 -90
lthumb  94.71760771 -25.56101271 100.8277603
rclavicle  0 -4.497500157e-015 -2.743230041e-014
rhumerus  -1.3093009 -28.82790184 -39.19960022
rradius  -5.16745672e-007 2.214343908e-008 79.22779846
rwrist  0.0003490542294 -0.002273720223 -171.9160004
rhand  -0 4.259829998 -5.772789955
rfingers  -90 -7.125020027 -90
rthumb  -84.20963152 -10.04506132 -59.82698361
rfemur  -10.7099514 14.14614105 12.19760132
rtibia  0.3087211251 -1.642601848 17.04649734
rfoot  2.18371582 -22.37812233 -33.57268524
rtoes  4.137385143 19.58453966 -102.1778769
lfemur  -1.792536736 -15.77737522 -23.60805321
ltibia  8.510123253 -0.6881053448 3.927243471
lfoot  0.2295697629 -19.53880882 36.20539856
ltoes  -8.471400572 -18.18418778 -115.5134113
113
root  34.73969107 36.5837788 -13.89876989 10.29308224 -4.988255024 3.688436508
lowerback  -7.801630497 -0.1783720255 -1.182819843
upperback  -3.954419851 0.3889130056 -4.414269924
thorax  0.3184410036 0.3837499917 -3.868139982
lowerneck  -8.10297966 -13.51179981 -9.0999403
upperneck  14.7677002 -18.88599777 12.37609959
head  7.959170818 -8.396652222 3.474287033
lclavicle  0 -4.497500157e-015 -2.743230041e-014
lhumerus  -47.63169861 30.92270088 61.9776001
lradius  0.001172923949 -6.507048965e-006 29.46479988
lwrist  3.192251654e-007 -3.790274832e-007 -29.41760063
lhand  -0 -36.64609909 -10.67959976
lfingers  90 7.125020027 -90
lthumb  94.69805158 -25.52427044 100.7978726
rclavicle  0 -4.497500157e-015 -2.743230041e-014
rhumerus  -0.518691361 -29.04500008 -39.14630127
rradius  -5.16745672e-007 2.214343908e-008 78.1309967
rwrist  0.0003490542294 -0.002273720223 -171.4660034
rhand  -1.770169652e-031 4.134659767 -5.91203022
rfingers  -90 -7.125020027 -90
rthumb  -84.31228334 -9.918152404 -59.96177989
rfemur  -10.74878025 14.12381554 12.16828442
rtibia  0.2826675177 -1.659937382 17.08508492
rfoot  2.159385681 -22.38572502 -33.59720612
rtoes  4.145581786 19.5828714 -102.2023311
lfemur  -1.819632888 -15.85754108 -23.63550568
ltibia  8.511324883 -0.7267486453 3.927220821
lfoot  0.2226644903 -19.44646072 36.22185898
ltoes  -8.464479844 -18.18732424 -115.4912365
114
root  34.73974814 36.58465889 -13.90164893 10.31566048 -4.971086502 3.716971159
lowerback  -7.769820213 -0.1679700464 -1.182190299
upperback  -3.954509974 0.4017969966 -4.420070171
thorax  0.2938469946 0.39023 -3.873630047
lowerneck  -8.033960342 -13.59150028 -9.237460136
upperneck  14.80519962 -19.00779915 12.51790047
head  7.998982906 -8.447012901 3.52755022
lclavicle  0 -4.497500157e-015 -2.743230041e-014
lhumerus  -47.62620163 30.89850044 61.99060059
lradius  0.001172923949 -6.507048965e-006 29.43909836
lwrist  3.192251654e-007 -3.790274832e-007 -29.42399979
lhand  -4.400852762e-031 -36.6427002 -10.64449978
lfingers  90 7.125020027 -90
lthumb  94.68919206 -25.48996077 100.791116
rclavicle  0 -4.497500157e-015 -2.743230041e-014
rhumerus  0.2934090197 -29.28110123 -39.11320114
rradius  -5.16745672e-007 2.214343908e-008 76.89109802
rwrist  0.0003490542294 -0.002273720223 -171.2030029
rhand  -0 4.397830009 -5.803209782
rfingers  -90 -7.125020027 -90
rthumb  -84.18997383 -10.02578989 -59.69453654
rfemur  -10.80271339 14.11430073 12.14189529
rtibia  0.255184114 -1.663978815 17.1364727
rfoot  2.146770954 -22.36513901 -33.59295654
rtoes  4.164633308 19.57898044 -102.2591779
lfemur  -1.856372237 -15.89770699 -23.65910721
ltibia  8.512501717 -0.7405704856 3.927947521
lfoot  0.2154940069 -19.40901947 36.2087326
ltoes  -8.480561392 -18.18003123 -115.5427693
115
root  34.73945077 36.58532571 -13.90488842 10.33499336 -4.945111275 3.725501537
lowerback  -7.768630028 -0.1588340402 -1.184250355
upperback  -3.951380014 0.4156219959 -4.436850071
thorax  0.2973229885 0.3975819945 -3.888890028
lowerneck  -7.951489925 -13.65069962 -9.253700256
upperneck  14.76580048 -19.08989716 12.52670002
head  7.987530231 -8.491783142 3.522691727
lclavicle  0 -4.497500157e-015 -2.743230041e-014
lhumerus  -47.62084961 30.96969986 61.94350052
lradius  0.001172923949 -6.507048965e-006 29.38470268
lwrist  3.192251654e-007 -3.790274832e-007 -29.48529816
lhand  -4.415756863e-031 -36.90190125 -10.64080048
lfingers  90 7.125020027 -90
lthumb  94.80967357 -25.47720897 101.0679183
rclavicle  0 -4.497500157e-015 -2.743230041e-014
rhumerus  1.13307035 -29.42280197 -39.07120132
rradius  -5.16745672e-007 2.214343908e-008 75.66290283
rwrist  0.0003490542294 -0.002273720223 -170.7449951
rhand  -1.770763393e-031 4.392399788 -5.688370228
rfingers  -90 -7.125020027 -90
rthumb  -84.13249605 -10.12464082 -59.68947687
rfemur  -10.85643768 14.10679054 12.14517593
rtibia  0.2310514003 -1.670875669 17.18847847
rfoot  2.13194108 -22.37545586 -33.58884048
rtoes  4.156970481 19.5805477 -102.2363119
lfemur  -1.878153563 -15.90266037 -23.65337372
ltibia  8.513751984 -0.7189061642 3.924311399
lfoot  0.2337034047 -19.45116806 36.25051117
ltoes  -8.470718292 -18.18449713 -115.511225
